<svg width="31" height="31" viewBox="0 0 31 31" fill="none" xmlns="http://www.w3.org/2000/svg">
<g clip-path="url(#clip0_8_63)">
<path d="M30.4097 16.8317C30.0161 17.2256 29.5418 17.4226 28.9868 17.4226C28.4318 17.4226 27.9626 17.2307 27.5791 16.8468L27.125 16.3923V29.059C27.125 29.6044 26.9383 30.064 26.5649 30.4377C26.1916 30.8115 25.7324 30.9984 25.1875 30.9984H21.3125V23.2408C21.3125 21.6448 20.7474 20.2812 19.6172 19.1499C18.487 18.0186 17.1196 17.4529 15.5151 17.4529C13.9106 17.4529 12.5433 18.0186 11.4131 19.1499C10.2829 20.2812 9.71777 21.6448 9.71777 23.2408V30.9984H5.8125C5.26758 30.9984 4.80843 30.8115 4.43506 30.4377C4.06169 30.064 3.875 29.6044 3.875 29.059V16.3923L3.4209 16.8468C3.03743 17.2307 2.5682 17.4226 2.01318 17.4226C1.45817 17.4226 0.983887 17.2256 0.590332 16.8317C0.196777 16.4378 0 15.963 0 15.4074C0 14.8519 0.191732 14.3822 0.575195 13.9984L14.0166 0.574118C14.4202 0.170078 14.9147 -0.0218413 15.5 -0.00163927C16.0853 -0.0218413 16.5798 0.170078 16.9834 0.574118L30.4248 13.9984C30.8083 14.3822 31 14.8519 31 15.4074C31 15.963 30.8032 16.4378 30.4097 16.8317Z" fill="white"/>
</g>
<defs>
<clipPath id="clip0_8_63">
<rect width="31" height="31" fill="white"/>
</clipPath>
</defs>
</svg>
