<svg width="37" height="37" viewBox="0 0 37 37" fill="none" xmlns="http://www.w3.org/2000/svg">
<circle cx="18.5" cy="18.5" r="18.5" fill="white"/>
<path d="M18.5 37C23.4065 37 28.1121 35.0509 31.5815 31.5815C35.0509 28.1121 37 23.4065 37 18.5C37 13.5935 35.0509 8.88795 31.5815 5.41852C28.1121 1.9491 23.4065 0 18.5 0C13.5935 0 8.88795 1.9491 5.41852 5.41852C1.9491 8.88795 0 13.5935 0 18.5C0 23.4065 1.9491 28.1121 5.41852 31.5815C8.88795 35.0509 13.5935 37 18.5 37ZM8.09375 11.5625H28.9062C29.2129 11.5625 29.507 11.6843 29.7238 11.9012C29.9407 12.118 30.0625 12.4121 30.0625 12.7188C30.0625 13.0254 29.9407 13.3195 29.7238 13.5363C29.507 13.7532 29.2129 13.875 28.9062 13.875H8.09375C7.78709 13.875 7.493 13.7532 7.27616 13.5363C7.05932 13.3195 6.9375 13.0254 6.9375 12.7188C6.9375 12.4121 7.05932 12.118 7.27616 11.9012C7.493 11.6843 7.78709 11.5625 8.09375 11.5625ZM11.5625 19.6562C11.5625 19.3496 11.6843 19.0555 11.9012 18.8387C12.118 18.6218 12.4121 18.5 12.7188 18.5H24.2812C24.5879 18.5 24.882 18.6218 25.0988 18.8387C25.3157 19.0555 25.4375 19.3496 25.4375 19.6562C25.4375 19.9629 25.3157 20.257 25.0988 20.4738C24.882 20.6907 24.5879 20.8125 24.2812 20.8125H12.7188C12.4121 20.8125 12.118 20.6907 11.9012 20.4738C11.6843 20.257 11.5625 19.9629 11.5625 19.6562ZM16.1875 26.5938C16.1875 26.2871 16.3093 25.993 16.5262 25.7762C16.743 25.5593 17.0371 25.4375 17.3438 25.4375H19.6562C19.9629 25.4375 20.257 25.5593 20.4738 25.7762C20.6907 25.993 20.8125 26.2871 20.8125 26.5938C20.8125 26.9004 20.6907 27.1945 20.4738 27.4113C20.257 27.6282 19.9629 27.75 19.6562 27.75H17.3438C17.0371 27.75 16.743 27.6282 16.5262 27.4113C16.3093 27.1945 16.1875 26.9004 16.1875 26.5938Z" fill="black"/>
</svg>
