<svg width="29" height="27" viewBox="0 0 29 27" fill="none" xmlns="http://www.w3.org/2000/svg">
<path d="M14.5003 4.94647L13.2006 3.61988C10.1501 0.505886 4.55657 1.58048 2.53739 5.49547C1.58942 7.33686 1.37554 9.99546 3.10653 13.3884C4.77408 16.6554 8.24331 20.5686 14.5003 24.831C20.7572 20.5686 24.2246 16.6554 25.894 13.3884C27.625 9.99366 27.4129 7.33686 26.4631 5.49547C24.4439 1.58048 18.8504 0.504086 15.7999 3.61808L14.5003 4.94647ZM14.5003 27C-13.2917 8.76246 5.94318 -5.47189 14.1812 2.05748C14.29 2.15648 14.3969 2.25908 14.5003 2.36528C14.6025 2.25918 14.7089 2.1571 14.8193 2.05928C23.0555 -5.47549 42.2922 8.76066 14.5003 27Z" fill="white"/>
</svg>
