<svg width="237" height="31" viewBox="0 0 237 31" fill="none" xmlns="http://www.w3.org/2000/svg">
<path d="M15.128 15.552C16.78 15.552 18.138 15.636 19.202 15.804C20.294 15.944 21.176 16.28 21.848 16.812C22.548 17.316 22.898 18.086 22.898 19.122C22.898 20.606 22.324 21.586 21.176 22.062C20.056 22.538 18.418 22.776 16.262 22.776L12.776 22.734L10.13 22.776C10.242 23.84 10.298 24.68 10.298 25.296C10.298 28.404 9.066 29.958 6.602 29.958C4.558 29.958 2.948 28.824 1.772 26.556C0.624 24.288 0.05 20.746 0.05 15.93C0.05 12.962 0.666 10.316 1.898 7.992C3.158 5.668 4.866 3.862 7.022 2.574C9.178 1.258 11.544 0.599998 14.12 0.599998C17.312 0.599998 19.734 1.146 21.386 2.238C23.066 3.33 23.906 4.856 23.906 6.816C23.906 8.188 23.57 9.238 22.898 9.966C22.254 10.666 21.344 11.142 20.168 11.394C19.02 11.618 17.494 11.73 15.59 11.73C14.05 11.73 12.72 12.038 11.6 12.654C10.508 13.27 9.906 14.124 9.794 15.216L9.752 15.594C10.088 15.566 10.592 15.552 11.264 15.552H12.776H15.128ZM36.1769 30C34.1329 30 32.3409 29.496 30.8009 28.488C29.2609 27.452 28.0709 26.024 27.2309 24.204C26.4189 22.356 26.0129 20.228 26.0129 17.82C26.0129 15.468 26.3909 13.62 27.1469 12.276C27.9029 10.932 28.9529 10.26 30.2969 10.26C32.6769 10.26 33.8669 11.478 33.8669 13.914C33.8669 14.418 33.8529 14.866 33.8249 15.258C33.7969 15.622 33.7689 15.944 33.7409 16.224C33.6289 17.344 33.5729 18.24 33.5729 18.912C33.5729 20.144 33.8249 21.082 34.3289 21.726C34.8329 22.37 35.4489 22.692 36.1769 22.692C36.9329 22.692 37.5489 22.384 38.0249 21.768C38.5289 21.124 38.7809 20.172 38.7809 18.912C38.7809 18.016 38.7389 17.19 38.6549 16.434C38.6269 16.182 38.5989 15.818 38.5709 15.342C38.5429 14.838 38.5289 14.376 38.5289 13.956C38.5289 11.492 39.7189 10.26 42.0989 10.26C43.4429 10.26 44.4789 10.932 45.2069 12.276C45.9629 13.592 46.3409 15.44 46.3409 17.82C46.3409 21.544 45.4729 24.512 43.7369 26.724C42.0009 28.908 39.4809 30 36.1769 30ZM52.2452 30C50.4532 30 49.2492 28.95 48.6332 26.85C48.0452 24.75 47.7512 21.852 47.7512 18.156C47.7512 16.476 47.8212 15.076 47.9612 13.956C48.1292 12.808 48.5072 11.842 49.0952 11.058C49.7112 10.246 50.6492 9.84 51.9092 9.84C52.6932 9.84 53.3792 10.022 53.9672 10.386C54.5832 10.75 54.9752 11.268 55.1432 11.94C55.7592 11.38 56.5572 10.96 57.5372 10.68C58.5172 10.4 59.5672 10.26 60.6872 10.26C61.5832 10.26 62.4932 10.484 63.4172 10.932C64.3692 11.38 65.1532 11.996 65.7692 12.78C66.4132 13.536 66.7352 14.362 66.7352 15.258C66.7352 16.154 66.4132 16.952 65.7692 17.652C65.1532 18.324 64.3272 18.66 63.2912 18.66C62.9552 18.66 62.6332 18.618 62.3252 18.534C62.0452 18.45 61.7932 18.366 61.5692 18.282C61.0092 18.058 60.5612 17.946 60.2252 17.946C59.1332 17.946 58.1672 18.38 57.3272 19.248C56.5152 20.088 56.1092 21.18 56.1092 22.524C56.1092 24.008 56.0532 25.24 55.9412 26.22C55.8292 27.2 55.4932 28.082 54.9332 28.866C54.3732 29.622 53.4772 30 52.2452 30ZM77.2834 30C75.2114 30 73.3774 29.594 71.7814 28.782C70.1854 27.97 68.9394 26.836 68.0434 25.38C67.1754 23.896 66.7414 22.23 66.7414 20.382C66.7414 18.562 67.1754 16.882 68.0434 15.342C68.9394 13.802 70.1714 12.57 71.7394 11.646C73.3074 10.722 75.0854 10.26 77.0734 10.26C78.8654 10.26 80.4474 10.624 81.8194 11.352C83.1914 12.08 84.2414 13.046 84.9694 14.25C85.6974 15.426 86.0614 16.658 86.0614 17.946C86.0614 20.046 85.2634 21.586 83.6674 22.566C82.0994 23.518 80.2234 23.994 78.0394 23.994C76.5834 23.994 75.3514 23.812 74.3434 23.448C75.1834 24.82 76.5694 25.506 78.5014 25.506C79.2854 25.506 80.1254 25.408 81.0214 25.212C81.3574 25.128 81.6794 25.086 81.9874 25.086C82.6034 25.086 83.0934 25.24 83.4574 25.548C83.8494 25.856 84.0454 26.276 84.0454 26.808C84.0454 27.676 83.5134 28.432 82.4494 29.076C81.3854 29.692 79.6634 30 77.2834 30ZM74.4694 18.324C74.7214 18.716 75.0574 19.01 75.4774 19.206C75.9254 19.374 76.4154 19.458 76.9474 19.458C77.5634 19.458 78.0954 19.318 78.5434 19.038C79.0194 18.758 79.2574 18.394 79.2574 17.946C79.2574 17.442 79.0474 17.008 78.6274 16.644C78.2354 16.28 77.6614 16.098 76.9054 16.098C76.1494 16.098 75.5474 16.336 75.0994 16.812C74.6794 17.26 74.4694 17.764 74.4694 18.324ZM97.6741 29.958C97.0021 29.958 96.3721 29.874 95.7841 29.706C95.2241 29.538 94.5661 29.16 93.8101 28.572C92.9421 27.872 91.9621 26.696 90.8701 25.044C89.7781 23.364 88.8401 21.558 88.0561 19.626C87.2721 17.666 86.8801 15.902 86.8801 14.334C86.8801 13.158 87.2161 12.192 87.8881 11.436C88.5881 10.652 89.4001 10.26 90.3241 10.26C91.4441 10.26 92.3961 10.694 93.1801 11.562C93.9921 12.402 94.6641 13.452 95.1961 14.712C95.7561 15.944 96.3861 17.61 97.0861 19.71C97.1701 19.962 97.2541 20.242 97.3381 20.55C97.4501 20.83 97.5621 21.124 97.6741 21.432L98.0941 20.214C98.8781 17.974 99.5501 16.21 100.11 14.922C100.67 13.606 101.37 12.5 102.21 11.604C103.05 10.68 104.03 10.232 105.15 10.26C106.046 10.288 106.802 10.624 107.418 11.268C108.062 11.912 108.384 12.85 108.384 14.082C108.384 15.762 108.02 17.526 107.292 19.374C106.564 21.222 105.71 22.902 104.73 24.414C103.75 25.898 102.91 26.99 102.21 27.69C101.594 28.39 100.866 28.95 100.026 29.37C99.2141 29.762 98.4301 29.958 97.6741 29.958ZM119.694 30C117.622 30 115.788 29.594 114.192 28.782C112.596 27.97 111.35 26.836 110.454 25.38C109.586 23.896 109.152 22.23 109.152 20.382C109.152 18.562 109.586 16.882 110.454 15.342C111.35 13.802 112.582 12.57 114.15 11.646C115.718 10.722 117.496 10.26 119.484 10.26C121.276 10.26 122.858 10.624 124.23 11.352C125.602 12.08 126.652 13.046 127.38 14.25C128.108 15.426 128.472 16.658 128.472 17.946C128.472 20.046 127.674 21.586 126.078 22.566C124.51 23.518 122.634 23.994 120.45 23.994C118.994 23.994 117.762 23.812 116.754 23.448C117.594 24.82 118.98 25.506 120.912 25.506C121.696 25.506 122.536 25.408 123.432 25.212C123.768 25.128 124.09 25.086 124.398 25.086C125.014 25.086 125.504 25.24 125.868 25.548C126.26 25.856 126.456 26.276 126.456 26.808C126.456 27.676 125.924 28.432 124.86 29.076C123.796 29.692 122.074 30 119.694 30ZM116.88 18.324C117.132 18.716 117.468 19.01 117.888 19.206C118.336 19.374 118.826 19.458 119.358 19.458C119.974 19.458 120.506 19.318 120.954 19.038C121.43 18.758 121.668 18.394 121.668 17.946C121.668 17.442 121.458 17.008 121.038 16.644C120.646 16.28 120.072 16.098 119.316 16.098C118.56 16.098 117.958 16.336 117.51 16.812C117.09 17.26 116.88 17.764 116.88 18.324ZM134.646 30C132.854 30 131.65 28.95 131.034 26.85C130.446 24.75 130.152 21.852 130.152 18.156C130.152 16.476 130.222 15.076 130.362 13.956C130.53 12.808 130.908 11.842 131.496 11.058C132.112 10.246 133.05 9.84 134.31 9.84C135.094 9.84 135.78 10.022 136.368 10.386C136.984 10.75 137.376 11.268 137.544 11.94C138.16 11.38 138.958 10.96 139.938 10.68C140.918 10.4 141.968 10.26 143.088 10.26C143.984 10.26 144.894 10.484 145.818 10.932C146.77 11.38 147.554 11.996 148.17 12.78C148.814 13.536 149.136 14.362 149.136 15.258C149.136 16.154 148.814 16.952 148.17 17.652C147.554 18.324 146.728 18.66 145.692 18.66C145.356 18.66 145.034 18.618 144.726 18.534C144.446 18.45 144.194 18.366 143.97 18.282C143.41 18.058 142.962 17.946 142.626 17.946C141.534 17.946 140.568 18.38 139.728 19.248C138.916 20.088 138.51 21.18 138.51 22.524C138.51 24.008 138.454 25.24 138.342 26.22C138.23 27.2 137.894 28.082 137.334 28.866C136.774 29.622 135.878 30 134.646 30Z" fill="#9C50FF"/>
<path d="M157.156 30.042C154.86 30.042 153.292 28.726 152.452 26.094C151.64 23.462 151.234 20.102 151.234 16.014C151.234 13.354 151.71 10.862 152.662 8.538C153.642 6.186 155.126 4.296 157.114 2.868C159.102 1.412 161.524 0.683999 164.38 0.683999C166.676 0.683999 168.762 1.174 170.638 2.154C172.514 3.106 173.998 4.478 175.09 6.27C176.21 8.062 176.77 10.134 176.77 12.486C176.77 15.202 176.224 17.484 175.132 19.332C174.04 21.18 172.626 22.552 170.89 23.448C169.154 24.344 167.32 24.792 165.388 24.792C163.82 24.792 162.378 24.526 161.062 23.994C161.23 24.89 161.314 25.576 161.314 26.052C161.314 28.712 159.928 30.042 157.156 30.042ZM164.8 18.282C165.808 18.282 166.676 17.918 167.404 17.19C168.16 16.434 168.538 15.566 168.538 14.586C168.538 13.578 168.16 12.71 167.404 11.982C166.676 11.226 165.808 10.848 164.8 10.848C163.82 10.848 162.952 11.226 162.196 11.982C161.44 12.71 161.062 13.578 161.062 14.586C161.062 15.566 161.44 16.434 162.196 17.19C162.952 17.918 163.82 18.282 164.8 18.282ZM187.738 30C185.666 30 183.832 29.594 182.236 28.782C180.64 27.97 179.394 26.836 178.498 25.38C177.63 23.896 177.196 22.23 177.196 20.382C177.196 18.562 177.63 16.882 178.498 15.342C179.394 13.802 180.626 12.57 182.194 11.646C183.762 10.722 185.54 10.26 187.528 10.26C189.32 10.26 190.902 10.624 192.274 11.352C193.646 12.08 194.696 13.046 195.424 14.25C196.152 15.426 196.516 16.658 196.516 17.946C196.516 20.046 195.718 21.586 194.122 22.566C192.554 23.518 190.678 23.994 188.494 23.994C187.038 23.994 185.806 23.812 184.798 23.448C185.638 24.82 187.024 25.506 188.956 25.506C189.74 25.506 190.58 25.408 191.476 25.212C191.812 25.128 192.134 25.086 192.442 25.086C193.058 25.086 193.548 25.24 193.912 25.548C194.304 25.856 194.5 26.276 194.5 26.808C194.5 27.676 193.968 28.432 192.904 29.076C191.84 29.692 190.118 30 187.738 30ZM184.924 18.324C185.176 18.716 185.512 19.01 185.932 19.206C186.38 19.374 186.87 19.458 187.402 19.458C188.018 19.458 188.55 19.318 188.998 19.038C189.474 18.758 189.712 18.394 189.712 17.946C189.712 17.442 189.502 17.008 189.082 16.644C188.69 16.28 188.116 16.098 187.36 16.098C186.604 16.098 186.002 16.336 185.554 16.812C185.134 17.26 184.924 17.764 184.924 18.324ZM218.282 11.814C218.282 13.27 217.596 14.264 216.224 14.796C214.852 15.3 212.976 15.566 210.596 15.594C210.568 16.294 210.554 17.428 210.554 18.996C210.554 20.592 210.666 21.726 210.89 22.398C211.03 22.874 211.24 23.182 211.52 23.322C211.828 23.462 212.276 23.56 212.864 23.616C213.06 23.644 213.27 23.686 213.494 23.742C213.746 23.77 214.026 23.812 214.334 23.868C214.978 24.008 215.482 24.358 215.846 24.918C216.21 25.45 216.392 26.136 216.392 26.976C216.392 27.928 215.902 28.67 214.922 29.202C213.942 29.734 212.598 30 210.89 30C209.322 30 207.824 29.552 206.396 28.656C204.968 27.732 203.988 26.5 203.456 24.96C202.896 23.308 202.616 20.186 202.616 15.594C200.656 15.538 199.074 15.286 197.87 14.838C196.694 14.362 196.106 13.522 196.106 12.318C196.106 10.806 196.666 9.798 197.786 9.294C198.906 8.762 200.516 8.482 202.616 8.454C202.7 6.214 203.05 4.352 203.666 2.868C204.282 1.356 205.388 0.599998 206.984 0.599998C208.608 0.599998 209.658 1.3 210.134 2.7C210.638 4.1 210.862 6.018 210.806 8.454C213.354 8.426 215.23 8.622 216.434 9.042C217.666 9.462 218.282 10.386 218.282 11.814ZM226.358 30C223.894 30 221.934 29.594 220.478 28.782C219.022 27.97 218.294 26.92 218.294 25.632C218.294 24.792 218.574 24.148 219.134 23.7C219.722 23.224 220.464 22.986 221.36 22.986C221.864 22.986 222.27 23.056 222.578 23.196C222.886 23.336 223.194 23.532 223.502 23.784C223.726 23.98 223.908 24.12 224.048 24.204C224.216 24.288 224.412 24.33 224.636 24.33C225.224 24.33 225.518 24.12 225.518 23.7C225.518 23.308 225.364 23.014 225.056 22.818C224.748 22.594 224.216 22.328 223.46 22.02C222.76 21.74 222.298 21.544 222.074 21.432C220.786 20.816 219.834 20.088 219.218 19.248C218.602 18.408 218.294 17.512 218.294 16.56C218.294 15.496 218.672 14.488 219.428 13.536C220.212 12.556 221.304 11.772 222.704 11.184C224.132 10.568 225.77 10.26 227.618 10.26C229.214 10.26 230.656 10.484 231.944 10.932C233.26 11.38 234.296 11.996 235.052 12.78C235.808 13.536 236.186 14.376 236.186 15.3C236.186 16.168 235.906 16.826 235.346 17.274C234.814 17.722 234.086 17.946 233.162 17.946C232.798 17.946 232.504 17.918 232.28 17.862C232.084 17.778 231.818 17.652 231.482 17.484C231.286 17.372 231.076 17.274 230.852 17.19C230.656 17.106 230.432 17.064 230.18 17.064C229.956 17.064 229.76 17.148 229.592 17.316C229.424 17.456 229.34 17.638 229.34 17.862C229.34 18.282 229.648 18.59 230.264 18.786C231.888 19.318 233.19 19.99 234.17 20.802C235.178 21.614 235.682 22.734 235.682 24.162C235.682 25.982 234.828 27.41 233.12 28.446C231.44 29.482 229.186 30 226.358 30Z" fill="white"/>
</svg>
