<svg width="155" height="28" viewBox="0 0 155 28" fill="none" xmlns="http://www.w3.org/2000/svg">
<g filter="url(#filter0_d_52_233)">
<path d="M13.984 10.056C15.0067 10.056 15.8473 10.108 16.506 10.212C17.182 10.2987 17.728 10.5067 18.144 10.836C18.5773 11.148 18.794 11.6247 18.794 12.266C18.794 13.1847 18.4387 13.7913 17.728 14.086C17.0347 14.3807 16.0207 14.528 14.686 14.528L12.528 14.502L10.89 14.528C10.9593 15.1867 10.994 15.7067 10.994 16.088C10.994 18.012 10.2313 18.974 8.706 18.974C7.44067 18.974 6.444 18.272 5.716 16.868C5.00533 15.464 4.65 13.2713 4.65 10.29C4.65 8.45267 5.03133 6.81467 5.794 5.376C6.574 3.93733 7.63133 2.81933 8.966 2.022C10.3007 1.20733 11.7653 0.799999 13.36 0.799999C15.336 0.799999 16.8353 1.138 17.858 1.814C18.898 2.49 19.418 3.43467 19.418 4.648C19.418 5.49733 19.21 6.14733 18.794 6.598C18.3953 7.03133 17.832 7.326 17.104 7.482C16.3933 7.62067 15.4487 7.69 14.27 7.69C13.3167 7.69 12.4933 7.88067 11.8 8.262C11.124 8.64333 10.7513 9.172 10.682 9.848L10.656 10.082C10.864 10.0647 11.176 10.056 11.592 10.056H12.528H13.984ZM27.0143 19C25.7489 19 24.6396 18.688 23.6863 18.064C22.7329 17.4227 21.9963 16.5387 21.4763 15.412C20.9736 14.268 20.7223 12.9507 20.7223 11.46C20.7223 10.004 20.9563 8.86 21.4243 8.028C21.8923 7.196 22.5423 6.78 23.3743 6.78C24.8476 6.78 25.5843 7.534 25.5843 9.042C25.5843 9.354 25.5756 9.63133 25.5583 9.874C25.5409 10.0993 25.5236 10.2987 25.5063 10.472C25.4369 11.1653 25.4023 11.72 25.4023 12.136C25.4023 12.8987 25.5583 13.4793 25.8703 13.878C26.1823 14.2767 26.5636 14.476 27.0143 14.476C27.4823 14.476 27.8636 14.2853 28.1583 13.904C28.4703 13.5053 28.6263 12.916 28.6263 12.136C28.6263 11.5813 28.6003 11.07 28.5483 10.602C28.5309 10.446 28.5136 10.2207 28.4963 9.926C28.4789 9.614 28.4703 9.328 28.4703 9.068C28.4703 7.54267 29.2069 6.78 30.6803 6.78C31.5123 6.78 32.1536 7.196 32.6043 8.028C33.0723 8.84267 33.3063 9.98667 33.3063 11.46C33.3063 13.7653 32.7689 15.6027 31.6943 16.972C30.6196 18.324 29.0596 19 27.0143 19ZM36.9613 19C35.852 19 35.1066 18.35 34.7253 17.05C34.3613 15.75 34.1793 13.956 34.1793 11.668C34.1793 10.628 34.2226 9.76133 34.3093 9.068C34.4133 8.35733 34.6473 7.75933 35.0113 7.274C35.3926 6.77133 35.9733 6.52 36.7533 6.52C37.2386 6.52 37.6633 6.63267 38.0273 6.858C38.4086 7.08333 38.6513 7.404 38.7553 7.82C39.1366 7.47333 39.6306 7.21333 40.2373 7.04C40.844 6.86667 41.494 6.78 42.1873 6.78C42.742 6.78 43.3053 6.91867 43.8773 7.196C44.4666 7.47333 44.952 7.85467 45.3333 8.34C45.732 8.808 45.9313 9.31933 45.9313 9.874C45.9313 10.4287 45.732 10.9227 45.3333 11.356C44.952 11.772 44.4406 11.98 43.7993 11.98C43.5913 11.98 43.392 11.954 43.2013 11.902C43.028 11.85 42.872 11.798 42.7333 11.746C42.3866 11.6073 42.1093 11.538 41.9013 11.538C41.2253 11.538 40.6273 11.8067 40.1073 12.344C39.6046 12.864 39.3533 13.54 39.3533 14.372C39.3533 15.2907 39.3186 16.0533 39.2493 16.66C39.18 17.2667 38.972 17.8127 38.6253 18.298C38.2786 18.766 37.724 19 36.9613 19ZM52.4612 19C51.1785 19 50.0432 18.7487 49.0552 18.246C48.0672 17.7433 47.2958 17.0413 46.7412 16.14C46.2038 15.2213 45.9352 14.19 45.9352 13.046C45.9352 11.9193 46.2038 10.8793 46.7412 9.926C47.2958 8.97267 48.0585 8.21 49.0292 7.638C49.9998 7.066 51.1005 6.78 52.3312 6.78C53.4405 6.78 54.4198 7.00533 55.2692 7.456C56.1185 7.90667 56.7685 8.50467 57.2192 9.25C57.6698 9.978 57.8952 10.7407 57.8952 11.538C57.8952 12.838 57.4012 13.7913 56.4132 14.398C55.4425 14.9873 54.2812 15.282 52.9292 15.282C52.0278 15.282 51.2652 15.1693 50.6412 14.944C51.1612 15.7933 52.0192 16.218 53.2152 16.218C53.7005 16.218 54.2205 16.1573 54.7752 16.036C54.9832 15.984 55.1825 15.958 55.3732 15.958C55.7545 15.958 56.0578 16.0533 56.2832 16.244C56.5258 16.4347 56.6472 16.6947 56.6472 17.024C56.6472 17.5613 56.3178 18.0293 55.6592 18.428C55.0005 18.8093 53.9345 19 52.4612 19ZM50.7192 11.772C50.8752 12.0147 51.0832 12.1967 51.3432 12.318C51.6205 12.422 51.9238 12.474 52.2532 12.474C52.6345 12.474 52.9638 12.3873 53.2412 12.214C53.5358 12.0407 53.6832 11.8153 53.6832 11.538C53.6832 11.226 53.5532 10.9573 53.2932 10.732C53.0505 10.5067 52.6952 10.394 52.2272 10.394C51.7592 10.394 51.3865 10.5413 51.1092 10.836C50.8492 11.1133 50.7192 11.4253 50.7192 11.772ZM65.084 18.974C64.668 18.974 64.278 18.922 63.914 18.818C63.5673 18.714 63.16 18.48 62.692 18.116C62.1546 17.6827 61.548 16.9547 60.872 15.932C60.196 14.892 59.6153 13.774 59.13 12.578C58.6446 11.3647 58.402 10.2727 58.402 9.302C58.402 8.574 58.61 7.976 59.026 7.508C59.4593 7.02267 59.962 6.78 60.534 6.78C61.2273 6.78 61.8166 7.04867 62.302 7.586C62.8046 8.106 63.2206 8.756 63.55 9.536C63.8966 10.2987 64.2866 11.33 64.72 12.63C64.772 12.786 64.824 12.9593 64.876 13.15C64.9453 13.3233 65.0146 13.5053 65.084 13.696L65.344 12.942C65.8293 11.5553 66.2453 10.4633 66.592 9.666C66.9386 8.85133 67.372 8.16667 67.892 7.612C68.412 7.04 69.0186 6.76267 69.712 6.78C70.2666 6.79733 70.7346 7.00533 71.116 7.404C71.5146 7.80267 71.714 8.38333 71.714 9.146C71.714 10.186 71.4886 11.278 71.038 12.422C70.5873 13.566 70.0586 14.606 69.452 15.542C68.8453 16.4607 68.3253 17.1367 67.892 17.57C67.5106 18.0033 67.06 18.35 66.54 18.61C66.0373 18.8527 65.552 18.974 65.084 18.974ZM78.7151 19C77.4324 19 76.2971 18.7487 75.3091 18.246C74.3211 17.7433 73.5497 17.0413 72.9951 16.14C72.4577 15.2213 72.1891 14.19 72.1891 13.046C72.1891 11.9193 72.4577 10.8793 72.9951 9.926C73.5497 8.97267 74.3124 8.21 75.2831 7.638C76.2537 7.066 77.3544 6.78 78.5851 6.78C79.6944 6.78 80.6737 7.00533 81.5231 7.456C82.3724 7.90667 83.0224 8.50467 83.4731 9.25C83.9237 9.978 84.1491 10.7407 84.1491 11.538C84.1491 12.838 83.6551 13.7913 82.6671 14.398C81.6964 14.9873 80.5351 15.282 79.1831 15.282C78.2817 15.282 77.5191 15.1693 76.8951 14.944C77.4151 15.7933 78.2731 16.218 79.4691 16.218C79.9544 16.218 80.4744 16.1573 81.0291 16.036C81.2371 15.984 81.4364 15.958 81.6271 15.958C82.0084 15.958 82.3117 16.0533 82.5371 16.244C82.7797 16.4347 82.9011 16.6947 82.9011 17.024C82.9011 17.5613 82.5717 18.0293 81.9131 18.428C81.2544 18.8093 80.1884 19 78.7151 19ZM76.9731 11.772C77.1291 12.0147 77.3371 12.1967 77.5971 12.318C77.8744 12.422 78.1777 12.474 78.5071 12.474C78.8884 12.474 79.2177 12.3873 79.4951 12.214C79.7897 12.0407 79.9371 11.8153 79.9371 11.538C79.9371 11.226 79.8071 10.9573 79.5471 10.732C79.3044 10.5067 78.9491 10.394 78.4811 10.394C78.0131 10.394 77.6404 10.5413 77.3631 10.836C77.1031 11.1133 76.9731 11.4253 76.9731 11.772ZM87.9711 19C86.8617 19 86.1164 18.35 85.7351 17.05C85.3711 15.75 85.1891 13.956 85.1891 11.668C85.1891 10.628 85.2324 9.76133 85.3191 9.068C85.4231 8.35733 85.6571 7.75933 86.0211 7.274C86.4024 6.77133 86.9831 6.52 87.7631 6.52C88.2484 6.52 88.6731 6.63267 89.0371 6.858C89.4184 7.08333 89.6611 7.404 89.7651 7.82C90.1464 7.47333 90.6404 7.21333 91.2471 7.04C91.8537 6.86667 92.5037 6.78 93.1971 6.78C93.7517 6.78 94.3151 6.91867 94.8871 7.196C95.4764 7.47333 95.9617 7.85467 96.3431 8.34C96.7417 8.808 96.9411 9.31933 96.9411 9.874C96.9411 10.4287 96.7417 10.9227 96.3431 11.356C95.9617 11.772 95.4504 11.98 94.8091 11.98C94.6011 11.98 94.4017 11.954 94.2111 11.902C94.0377 11.85 93.8817 11.798 93.7431 11.746C93.3964 11.6073 93.1191 11.538 92.9111 11.538C92.2351 11.538 91.6371 11.8067 91.1171 12.344C90.6144 12.864 90.3631 13.54 90.3631 14.372C90.3631 15.2907 90.3284 16.0533 90.2591 16.66C90.1897 17.2667 89.9817 17.8127 89.6351 18.298C89.2884 18.766 88.7337 19 87.9711 19ZM101.906 19.026C100.485 19.026 99.5138 18.2113 98.9938 16.582C98.4912 14.9527 98.2398 12.8727 98.2398 10.342C98.2398 8.69533 98.5345 7.15267 99.1238 5.714C99.7305 4.258 100.649 3.088 101.88 2.204C103.111 1.30267 104.61 0.852 106.378 0.852C107.799 0.852 109.091 1.15533 110.252 1.762C111.413 2.35133 112.332 3.20067 113.008 4.31C113.701 5.41933 114.048 6.702 114.048 8.158C114.048 9.83933 113.71 11.252 113.034 12.396C112.358 13.54 111.483 14.3893 110.408 14.944C109.333 15.4987 108.198 15.776 107.002 15.776C106.031 15.776 105.139 15.6113 104.324 15.282C104.428 15.8367 104.48 16.2613 104.48 16.556C104.48 18.2027 103.622 19.026 101.906 19.026ZM106.638 11.746C107.262 11.746 107.799 11.5207 108.25 11.07C108.718 10.602 108.952 10.0647 108.952 9.458C108.952 8.834 108.718 8.29667 108.25 7.846C107.799 7.378 107.262 7.144 106.638 7.144C106.031 7.144 105.494 7.378 105.026 7.846C104.558 8.29667 104.324 8.834 104.324 9.458C104.324 10.0647 104.558 10.602 105.026 11.07C105.494 11.5207 106.031 11.746 106.638 11.746ZM120.838 19C119.555 19 118.42 18.7487 117.432 18.246C116.444 17.7433 115.673 17.0413 115.118 16.14C114.581 15.2213 114.312 14.19 114.312 13.046C114.312 11.9193 114.581 10.8793 115.118 9.926C115.673 8.97267 116.435 8.21 117.406 7.638C118.377 7.066 119.477 6.78 120.708 6.78C121.817 6.78 122.797 7.00533 123.646 7.456C124.495 7.90667 125.145 8.50467 125.596 9.25C126.047 9.978 126.272 10.7407 126.272 11.538C126.272 12.838 125.778 13.7913 124.79 14.398C123.819 14.9873 122.658 15.282 121.306 15.282C120.405 15.282 119.642 15.1693 119.018 14.944C119.538 15.7933 120.396 16.218 121.592 16.218C122.077 16.218 122.597 16.1573 123.152 16.036C123.36 15.984 123.559 15.958 123.75 15.958C124.131 15.958 124.435 16.0533 124.66 16.244C124.903 16.4347 125.024 16.6947 125.024 17.024C125.024 17.5613 124.695 18.0293 124.036 18.428C123.377 18.8093 122.311 19 120.838 19ZM119.096 11.772C119.252 12.0147 119.46 12.1967 119.72 12.318C119.997 12.422 120.301 12.474 120.63 12.474C121.011 12.474 121.341 12.3873 121.618 12.214C121.913 12.0407 122.06 11.8153 122.06 11.538C122.06 11.226 121.93 10.9573 121.67 10.732C121.427 10.5067 121.072 10.394 120.604 10.394C120.136 10.394 119.763 10.5413 119.486 10.836C119.226 11.1133 119.096 11.4253 119.096 11.772ZM139.746 7.742C139.746 8.64333 139.322 9.25867 138.472 9.588C137.623 9.9 136.462 10.0647 134.988 10.082C134.971 10.5153 134.962 11.2173 134.962 12.188C134.962 13.176 135.032 13.878 135.17 14.294C135.257 14.5887 135.387 14.7793 135.56 14.866C135.751 14.9527 136.028 15.0133 136.392 15.048C136.514 15.0653 136.644 15.0913 136.782 15.126C136.938 15.1433 137.112 15.1693 137.302 15.204C137.701 15.2907 138.013 15.5073 138.238 15.854C138.464 16.1833 138.576 16.608 138.576 17.128C138.576 17.7173 138.273 18.1767 137.666 18.506C137.06 18.8353 136.228 19 135.17 19C134.2 19 133.272 18.7227 132.388 18.168C131.504 17.596 130.898 16.8333 130.568 15.88C130.222 14.8573 130.048 12.9247 130.048 10.082C128.835 10.0473 127.856 9.89133 127.11 9.614C126.382 9.31933 126.018 8.79933 126.018 8.054C126.018 7.118 126.365 6.494 127.058 6.182C127.752 5.85267 128.748 5.67933 130.048 5.662C130.1 4.27533 130.317 3.12267 130.698 2.204C131.08 1.268 131.764 0.799999 132.752 0.799999C133.758 0.799999 134.408 1.23333 134.702 2.1C135.014 2.96667 135.153 4.154 135.118 5.662C136.696 5.64467 137.857 5.766 138.602 6.026C139.365 6.286 139.746 6.858 139.746 7.742ZM144.746 19C143.22 19 142.007 18.7487 141.106 18.246C140.204 17.7433 139.754 17.0933 139.754 16.296C139.754 15.776 139.927 15.3773 140.274 15.1C140.638 14.8053 141.097 14.658 141.652 14.658C141.964 14.658 142.215 14.7013 142.406 14.788C142.596 14.8747 142.787 14.996 142.978 15.152C143.116 15.2733 143.229 15.36 143.316 15.412C143.42 15.464 143.541 15.49 143.68 15.49C144.044 15.49 144.226 15.36 144.226 15.1C144.226 14.8573 144.13 14.6753 143.94 14.554C143.749 14.4153 143.42 14.2507 142.952 14.06C142.518 13.8867 142.232 13.7653 142.094 13.696C141.296 13.3147 140.707 12.864 140.326 12.344C139.944 11.824 139.754 11.2693 139.754 10.68C139.754 10.0213 139.988 9.39733 140.456 8.808C140.941 8.20133 141.617 7.716 142.484 7.352C143.368 6.97067 144.382 6.78 145.526 6.78C146.514 6.78 147.406 6.91867 148.204 7.196C149.018 7.47333 149.66 7.85467 150.128 8.34C150.596 8.808 150.83 9.328 150.83 9.9C150.83 10.4373 150.656 10.8447 150.31 11.122C149.98 11.3993 149.53 11.538 148.958 11.538C148.732 11.538 148.55 11.5207 148.412 11.486C148.29 11.434 148.126 11.356 147.918 11.252C147.796 11.1827 147.666 11.122 147.528 11.07C147.406 11.018 147.268 10.992 147.112 10.992C146.973 10.992 146.852 11.044 146.748 11.148C146.644 11.2347 146.592 11.3473 146.592 11.486C146.592 11.746 146.782 11.9367 147.164 12.058C148.169 12.3873 148.975 12.8033 149.582 13.306C150.206 13.8087 150.518 14.502 150.518 15.386C150.518 16.5127 149.989 17.3967 148.932 18.038C147.892 18.6793 146.496 19 144.746 19Z" fill="white"/>
</g>
<defs>
<filter id="filter0_d_52_233" x="0.650024" y="0.799988" width="154.18" height="26.226" filterUnits="userSpaceOnUse" color-interpolation-filters="sRGB">
<feFlood flood-opacity="0" result="BackgroundImageFix"/>
<feColorMatrix in="SourceAlpha" type="matrix" values="0 0 0 0 0 0 0 0 0 0 0 0 0 0 0 0 0 0 127 0" result="hardAlpha"/>
<feOffset dy="4"/>
<feGaussianBlur stdDeviation="2"/>
<feComposite in2="hardAlpha" operator="out"/>
<feColorMatrix type="matrix" values="0 0 0 0 0 0 0 0 0 0 0 0 0 0 0 0 0 0 0.25 0"/>
<feBlend mode="normal" in2="BackgroundImageFix" result="effect1_dropShadow_52_233"/>
<feBlend mode="normal" in="SourceGraphic" in2="effect1_dropShadow_52_233" result="shape"/>
</filter>
</defs>
</svg>
