<svg width="148" height="20" viewBox="0 0 148 20" fill="none" xmlns="http://www.w3.org/2000/svg">
<path d="M9.984 10.056C11.0067 10.056 11.8473 10.108 12.506 10.212C13.182 10.2987 13.728 10.5067 14.144 10.836C14.5773 11.148 14.794 11.6247 14.794 12.266C14.794 13.1847 14.4387 13.7913 13.728 14.086C13.0347 14.3807 12.0207 14.528 10.686 14.528L8.528 14.502L6.89 14.528C6.95933 15.1867 6.994 15.7067 6.994 16.088C6.994 18.012 6.23133 18.974 4.706 18.974C3.44067 18.974 2.444 18.272 1.716 16.868C1.00533 15.464 0.65 13.2713 0.65 10.29C0.65 8.45267 1.03133 6.81467 1.794 5.376C2.574 3.93733 3.63133 2.81933 4.966 2.022C6.30067 1.20733 7.76533 0.799999 9.36 0.799999C11.336 0.799999 12.8353 1.138 13.858 1.814C14.898 2.49 15.418 3.43467 15.418 4.648C15.418 5.49733 15.21 6.14733 14.794 6.598C14.3953 7.03133 13.832 7.326 13.104 7.482C12.3933 7.62067 11.4487 7.69 10.27 7.69C9.31667 7.69 8.49333 7.88067 7.8 8.262C7.124 8.64333 6.75133 9.172 6.682 9.848L6.656 10.082C6.864 10.0647 7.176 10.056 7.592 10.056H8.528H9.984ZM23.0143 19C21.7489 19 20.6396 18.688 19.6863 18.064C18.7329 17.4227 17.9963 16.5387 17.4763 15.412C16.9736 14.268 16.7223 12.9507 16.7223 11.46C16.7223 10.004 16.9563 8.86 17.4243 8.028C17.8923 7.196 18.5423 6.78 19.3743 6.78C20.8476 6.78 21.5843 7.534 21.5843 9.042C21.5843 9.354 21.5756 9.63133 21.5583 9.874C21.5409 10.0993 21.5236 10.2987 21.5063 10.472C21.4369 11.1653 21.4023 11.72 21.4023 12.136C21.4023 12.8987 21.5583 13.4793 21.8703 13.878C22.1823 14.2767 22.5636 14.476 23.0143 14.476C23.4823 14.476 23.8636 14.2853 24.1583 13.904C24.4703 13.5053 24.6263 12.916 24.6263 12.136C24.6263 11.5813 24.6003 11.07 24.5483 10.602C24.5309 10.446 24.5136 10.2207 24.4963 9.926C24.4789 9.614 24.4703 9.328 24.4703 9.068C24.4703 7.54267 25.2069 6.78 26.6803 6.78C27.5123 6.78 28.1536 7.196 28.6043 8.028C29.0723 8.84267 29.3063 9.98667 29.3063 11.46C29.3063 13.7653 28.7689 15.6027 27.6943 16.972C26.6196 18.324 25.0596 19 23.0143 19ZM32.9613 19C31.852 19 31.1066 18.35 30.7253 17.05C30.3613 15.75 30.1793 13.956 30.1793 11.668C30.1793 10.628 30.2226 9.76133 30.3093 9.068C30.4133 8.35733 30.6473 7.75933 31.0113 7.274C31.3926 6.77133 31.9733 6.52 32.7533 6.52C33.2386 6.52 33.6633 6.63267 34.0273 6.858C34.4086 7.08333 34.6513 7.404 34.7553 7.82C35.1366 7.47333 35.6306 7.21333 36.2373 7.04C36.844 6.86667 37.494 6.78 38.1873 6.78C38.742 6.78 39.3053 6.91867 39.8773 7.196C40.4666 7.47333 40.952 7.85467 41.3333 8.34C41.732 8.808 41.9313 9.31933 41.9313 9.874C41.9313 10.4287 41.732 10.9227 41.3333 11.356C40.952 11.772 40.4406 11.98 39.7993 11.98C39.5913 11.98 39.392 11.954 39.2013 11.902C39.028 11.85 38.872 11.798 38.7333 11.746C38.3866 11.6073 38.1093 11.538 37.9013 11.538C37.2253 11.538 36.6273 11.8067 36.1073 12.344C35.6046 12.864 35.3533 13.54 35.3533 14.372C35.3533 15.2907 35.3186 16.0533 35.2493 16.66C35.18 17.2667 34.972 17.8127 34.6253 18.298C34.2786 18.766 33.724 19 32.9613 19ZM48.4612 19C47.1785 19 46.0432 18.7487 45.0552 18.246C44.0672 17.7433 43.2958 17.0413 42.7412 16.14C42.2038 15.2213 41.9352 14.19 41.9352 13.046C41.9352 11.9193 42.2038 10.8793 42.7412 9.926C43.2958 8.97267 44.0585 8.21 45.0292 7.638C45.9998 7.066 47.1005 6.78 48.3312 6.78C49.4405 6.78 50.4198 7.00533 51.2692 7.456C52.1185 7.90667 52.7685 8.50467 53.2192 9.25C53.6698 9.978 53.8952 10.7407 53.8952 11.538C53.8952 12.838 53.4012 13.7913 52.4132 14.398C51.4425 14.9873 50.2812 15.282 48.9292 15.282C48.0278 15.282 47.2652 15.1693 46.6412 14.944C47.1612 15.7933 48.0192 16.218 49.2152 16.218C49.7005 16.218 50.2205 16.1573 50.7752 16.036C50.9832 15.984 51.1825 15.958 51.3732 15.958C51.7545 15.958 52.0578 16.0533 52.2832 16.244C52.5258 16.4347 52.6472 16.6947 52.6472 17.024C52.6472 17.5613 52.3178 18.0293 51.6592 18.428C51.0005 18.8093 49.9345 19 48.4612 19ZM46.7192 11.772C46.8752 12.0147 47.0832 12.1967 47.3432 12.318C47.6205 12.422 47.9238 12.474 48.2532 12.474C48.6345 12.474 48.9638 12.3873 49.2412 12.214C49.5358 12.0407 49.6832 11.8153 49.6832 11.538C49.6832 11.226 49.5532 10.9573 49.2932 10.732C49.0505 10.5067 48.6952 10.394 48.2272 10.394C47.7592 10.394 47.3865 10.5413 47.1092 10.836C46.8492 11.1133 46.7192 11.4253 46.7192 11.772ZM61.084 18.974C60.668 18.974 60.278 18.922 59.914 18.818C59.5673 18.714 59.16 18.48 58.692 18.116C58.1546 17.6827 57.548 16.9547 56.872 15.932C56.196 14.892 55.6153 13.774 55.13 12.578C54.6446 11.3647 54.402 10.2727 54.402 9.302C54.402 8.574 54.61 7.976 55.026 7.508C55.4593 7.02267 55.962 6.78 56.534 6.78C57.2273 6.78 57.8166 7.04867 58.302 7.586C58.8046 8.106 59.2206 8.756 59.55 9.536C59.8966 10.2987 60.2866 11.33 60.72 12.63C60.772 12.786 60.824 12.9593 60.876 13.15C60.9453 13.3233 61.0146 13.5053 61.084 13.696L61.344 12.942C61.8293 11.5553 62.2453 10.4633 62.592 9.666C62.9386 8.85133 63.372 8.16667 63.892 7.612C64.412 7.04 65.0186 6.76267 65.712 6.78C66.2666 6.79733 66.7346 7.00533 67.116 7.404C67.5146 7.80267 67.714 8.38333 67.714 9.146C67.714 10.186 67.4886 11.278 67.038 12.422C66.5873 13.566 66.0586 14.606 65.452 15.542C64.8453 16.4607 64.3253 17.1367 63.892 17.57C63.5106 18.0033 63.06 18.35 62.54 18.61C62.0373 18.8527 61.552 18.974 61.084 18.974ZM74.7151 19C73.4324 19 72.2971 18.7487 71.3091 18.246C70.3211 17.7433 69.5497 17.0413 68.9951 16.14C68.4577 15.2213 68.1891 14.19 68.1891 13.046C68.1891 11.9193 68.4577 10.8793 68.9951 9.926C69.5497 8.97267 70.3124 8.21 71.2831 7.638C72.2537 7.066 73.3544 6.78 74.5851 6.78C75.6944 6.78 76.6737 7.00533 77.5231 7.456C78.3724 7.90667 79.0224 8.50467 79.4731 9.25C79.9237 9.978 80.1491 10.7407 80.1491 11.538C80.1491 12.838 79.6551 13.7913 78.6671 14.398C77.6964 14.9873 76.5351 15.282 75.1831 15.282C74.2817 15.282 73.5191 15.1693 72.8951 14.944C73.4151 15.7933 74.2731 16.218 75.4691 16.218C75.9544 16.218 76.4744 16.1573 77.0291 16.036C77.2371 15.984 77.4364 15.958 77.6271 15.958C78.0084 15.958 78.3117 16.0533 78.5371 16.244C78.7797 16.4347 78.9011 16.6947 78.9011 17.024C78.9011 17.5613 78.5717 18.0293 77.9131 18.428C77.2544 18.8093 76.1884 19 74.7151 19ZM72.9731 11.772C73.1291 12.0147 73.3371 12.1967 73.5971 12.318C73.8744 12.422 74.1777 12.474 74.5071 12.474C74.8884 12.474 75.2177 12.3873 75.4951 12.214C75.7897 12.0407 75.9371 11.8153 75.9371 11.538C75.9371 11.226 75.8071 10.9573 75.5471 10.732C75.3044 10.5067 74.9491 10.394 74.4811 10.394C74.0131 10.394 73.6404 10.5413 73.3631 10.836C73.1031 11.1133 72.9731 11.4253 72.9731 11.772Z" fill="#94DAFF"/>
<path d="M84.225 19C83.1156 19 82.3703 18.35 81.989 17.05C81.625 15.75 81.443 13.956 81.443 11.668C81.443 10.628 81.4863 9.76133 81.573 9.068C81.677 8.35733 81.911 7.75933 82.275 7.274C82.6563 6.77133 83.237 6.52 84.017 6.52C84.5023 6.52 84.927 6.63267 85.291 6.858C85.6723 7.08333 85.915 7.404 86.019 7.82C86.4003 7.47333 86.8943 7.21333 87.501 7.04C88.1076 6.86667 88.7576 6.78 89.451 6.78C90.0056 6.78 90.569 6.91867 91.141 7.196C91.7303 7.47333 92.2156 7.85467 92.597 8.34C92.9956 8.808 93.195 9.31933 93.195 9.874C93.195 10.4287 92.9956 10.9227 92.597 11.356C92.2156 11.772 91.7043 11.98 91.063 11.98C90.855 11.98 90.6556 11.954 90.465 11.902C90.2916 11.85 90.1356 11.798 89.997 11.746C89.6503 11.6073 89.373 11.538 89.165 11.538C88.489 11.538 87.891 11.8067 87.371 12.344C86.8683 12.864 86.617 13.54 86.617 14.372C86.617 15.2907 86.5823 16.0533 86.513 16.66C86.4436 17.2667 86.2356 17.8127 85.889 18.298C85.5423 18.766 84.9876 19 84.225 19Z" fill="#9BDDFF"/>
<path d="M98.1598 19.026C96.7384 19.026 95.7678 18.2113 95.2478 16.582C94.7451 14.9527 94.4938 12.8727 94.4938 10.342C94.4938 8.69533 94.7884 7.15267 95.3778 5.714C95.9844 4.258 96.9031 3.088 98.1338 2.204C99.3644 1.30267 100.864 0.852 102.632 0.852C104.053 0.852 105.344 1.15533 106.506 1.762C107.667 2.35133 108.586 3.20067 109.262 4.31C109.955 5.41933 110.302 6.702 110.302 8.158C110.302 9.83933 109.964 11.252 109.288 12.396C108.612 13.54 107.736 14.3893 106.662 14.944C105.587 15.4987 104.452 15.776 103.256 15.776C102.285 15.776 101.392 15.6113 100.578 15.282C100.682 15.8367 100.734 16.2613 100.734 16.556C100.734 18.2027 99.8758 19.026 98.1598 19.026ZM102.892 11.746C103.516 11.746 104.053 11.5207 104.504 11.07C104.972 10.602 105.206 10.0647 105.206 9.458C105.206 8.834 104.972 8.29667 104.504 7.846C104.053 7.378 103.516 7.144 102.892 7.144C102.285 7.144 101.748 7.378 101.28 7.846C100.812 8.29667 100.578 8.834 100.578 9.458C100.578 10.0647 100.812 10.602 101.28 11.07C101.748 11.5207 102.285 11.746 102.892 11.746ZM117.092 19C115.809 19 114.674 18.7487 113.686 18.246C112.698 17.7433 111.927 17.0413 111.372 16.14C110.835 15.2213 110.566 14.19 110.566 13.046C110.566 11.9193 110.835 10.8793 111.372 9.926C111.927 8.97267 112.689 8.21 113.66 7.638C114.631 7.066 115.731 6.78 116.962 6.78C118.071 6.78 119.051 7.00533 119.9 7.456C120.749 7.90667 121.399 8.50467 121.85 9.25C122.301 9.978 122.526 10.7407 122.526 11.538C122.526 12.838 122.032 13.7913 121.044 14.398C120.073 14.9873 118.912 15.282 117.56 15.282C116.659 15.282 115.896 15.1693 115.272 14.944C115.792 15.7933 116.65 16.218 117.846 16.218C118.331 16.218 118.851 16.1573 119.406 16.036C119.614 15.984 119.813 15.958 120.004 15.958C120.385 15.958 120.689 16.0533 120.914 16.244C121.157 16.4347 121.278 16.6947 121.278 17.024C121.278 17.5613 120.949 18.0293 120.29 18.428C119.631 18.8093 118.565 19 117.092 19ZM115.35 11.772C115.506 12.0147 115.714 12.1967 115.974 12.318C116.251 12.422 116.555 12.474 116.884 12.474C117.265 12.474 117.595 12.3873 117.872 12.214C118.167 12.0407 118.314 11.8153 118.314 11.538C118.314 11.226 118.184 10.9573 117.924 10.732C117.681 10.5067 117.326 10.394 116.858 10.394C116.39 10.394 116.017 10.5413 115.74 10.836C115.48 11.1133 115.35 11.4253 115.35 11.772ZM136 7.742C136 8.64333 135.575 9.25867 134.726 9.588C133.877 9.9 132.715 10.0647 131.242 10.082C131.225 10.5153 131.216 11.2173 131.216 12.188C131.216 13.176 131.285 13.878 131.424 14.294C131.511 14.5887 131.641 14.7793 131.814 14.866C132.005 14.9527 132.282 15.0133 132.646 15.048C132.767 15.0653 132.897 15.0913 133.036 15.126C133.192 15.1433 133.365 15.1693 133.556 15.204C133.955 15.2907 134.267 15.5073 134.492 15.854C134.717 16.1833 134.83 16.608 134.83 17.128C134.83 17.7173 134.527 18.1767 133.92 18.506C133.313 18.8353 132.481 19 131.424 19C130.453 19 129.526 18.7227 128.642 18.168C127.758 17.596 127.151 16.8333 126.822 15.88C126.475 14.8573 126.302 12.9247 126.302 10.082C125.089 10.0473 124.109 9.89133 123.364 9.614C122.636 9.31933 122.272 8.79933 122.272 8.054C122.272 7.118 122.619 6.494 123.312 6.182C124.005 5.85267 125.002 5.67933 126.302 5.662C126.354 4.27533 126.571 3.12267 126.952 2.204C127.333 1.268 128.018 0.799999 129.006 0.799999C130.011 0.799999 130.661 1.23333 130.956 2.1C131.268 2.96667 131.407 4.154 131.372 5.662C132.949 5.64467 134.111 5.766 134.856 6.026C135.619 6.286 136 6.858 136 7.742ZM140.999 19C139.474 19 138.261 18.7487 137.359 18.246C136.458 17.7433 136.007 17.0933 136.007 16.296C136.007 15.776 136.181 15.3773 136.527 15.1C136.891 14.8053 137.351 14.658 137.905 14.658C138.217 14.658 138.469 14.7013 138.659 14.788C138.85 14.8747 139.041 14.996 139.231 15.152C139.37 15.2733 139.483 15.36 139.569 15.412C139.673 15.464 139.795 15.49 139.933 15.49C140.297 15.49 140.479 15.36 140.479 15.1C140.479 14.8573 140.384 14.6753 140.193 14.554C140.003 14.4153 139.673 14.2507 139.205 14.06C138.772 13.8867 138.486 13.7653 138.347 13.696C137.55 13.3147 136.961 12.864 136.579 12.344C136.198 11.824 136.007 11.2693 136.007 10.68C136.007 10.0213 136.241 9.39733 136.709 8.808C137.195 8.20133 137.871 7.716 138.737 7.352C139.621 6.97067 140.635 6.78 141.779 6.78C142.767 6.78 143.66 6.91867 144.457 7.196C145.272 7.47333 145.913 7.85467 146.381 8.34C146.849 8.808 147.083 9.328 147.083 9.9C147.083 10.4373 146.91 10.8447 146.563 11.122C146.234 11.3993 145.783 11.538 145.211 11.538C144.986 11.538 144.804 11.5207 144.665 11.486C144.544 11.434 144.379 11.356 144.171 11.252C144.05 11.1827 143.92 11.122 143.781 11.07C143.66 11.018 143.521 10.992 143.365 10.992C143.227 10.992 143.105 11.044 143.001 11.148C142.897 11.2347 142.845 11.3473 142.845 11.486C142.845 11.746 143.036 11.9367 143.417 12.058C144.423 12.3873 145.229 12.8033 145.835 13.306C146.459 13.8087 146.771 14.502 146.771 15.386C146.771 16.5127 146.243 17.3967 145.185 18.038C144.145 18.6793 142.75 19 140.999 19Z" fill="white"/>
</svg>
