<svg width="35" height="35" viewBox="0 0 35 35" fill="none" xmlns="http://www.w3.org/2000/svg">
<path d="M17.5 0.416687C8.23914 0.416687 0.416687 8.23914 0.416687 17.5C0.416687 26.7609 8.23914 34.5834 17.5 34.5834C26.7609 34.5834 34.5834 26.7609 34.5834 17.5C34.5834 8.23914 26.7609 0.416687 17.5 0.416687ZM17.5 8.95835C20.4503 8.95835 22.625 11.1314 22.625 14.0834C22.625 17.0354 20.4503 19.2084 17.5 19.2084C14.5514 19.2084 12.375 17.0354 12.375 14.0834C12.375 11.1314 14.5514 8.95835 17.5 8.95835ZM8.77727 25.6522C10.3096 23.3972 12.8653 21.8939 15.7917 21.8939H19.2084C22.1364 21.8939 24.6904 23.3972 26.2228 25.6522C24.0395 27.9892 20.9423 29.4584 17.5 29.4584C14.0577 29.4584 10.9605 27.9892 8.77727 25.6522Z" fill="white"/>
</svg>
